<svg version="1.1" xmlns="http://www.w3.org/2000/svg" xmlns:xlink="http://www.w3.org/1999/xlink" width="26" height="41"><defs/><g><path fill="rgb(255,255,255)" stroke="none" paint-order="stroke fill markers" fill-rule="evenodd" d=" M 13.496772766113281 11.757374227046967 C 12.583419799804688 11.757374227046967 11.83978271484375 12.501290261745453 11.83978271484375 13.416105926036835 C 11.83978271484375 14.330921590328217 12.582847595214844 15.074837625026703 13.496772766113281 15.074837625026703 C 14.41058349609375 15.074837625026703 15.153762817382812 14.330921590328217 15.153762817382812 13.416105926036835 C 15.153762817382812 12.501290261745453 14.410125732421875 11.757374227046967 13.496772766113281 11.757374227046967 Z M 12.543251037597656 1.9926385283470154 C 6.611663818359375 2.4676389694213867 1.9986648559570312 7.440483093261719 1.9986648559570312 13.416105926036835 C 1.9986648559570312 13.416105926036835 1.9986648559570312 27.490472316741943 1.9986648559570312 27.490472316741943 C 1.9986648559570312 33.83693617582321 7.156402587890625 39.00106501579285 13.496772766113281 39.00106501579285 C 19.837600708007812 39.00106501579285 24.99579620361328 33.83693617582321 24.99579620361328 27.489913821220398 C 24.99579620361328 27.489913821220398 24.99579620361328 13.41554743051529 24.99579620361328 13.41554743051529 C 24.99579620361328 7.444392561912537 20.38336944580078 2.4715484380722046 14.451324462890625 1.9926385283470154 C 14.451324462890625 1.9926385283470154 12.543251037597656 1.9926385283470154 12.543251037597656 1.9926385283470154 M 13.496772766113281 37.09128957986832 C 8.208915710449219 37.09128957986832 3.9061660766601562 32.78473061323166 3.9061660766601562 27.489913821220398 C 3.9061660766601562 27.489913821220398 3.9061660766601562 13.41554743051529 3.9061660766601562 13.41554743051529 C 3.9061660766601562 8.121289134025574 8.208457946777344 3.814730167388916 13.496772766113281 3.814730167388916 C 18.78508758544922 3.814730167388916 23.08783721923828 8.121289134025574 23.08783721923828 13.41554743051529 C 23.08783721923828 13.41554743051529 23.08783721923828 27.489913821220398 23.08783721923828 27.489913821220398 C 23.08783721923828 32.78473061323166 18.78508758544922 37.09128957986832 13.496772766113281 37.09128957986832 Z"/></g></svg>