<svg version="1.1" xmlns="http://www.w3.org/2000/svg" xmlns:xlink="http://www.w3.org/1999/xlink" width="83" height="87"><defs/><g><path fill="rgb(60,60,60)" stroke="none" paint-order="stroke fill markers" fill-rule="evenodd" d=" M 79.95597839355469 1.9888131022453308 C 79.95597839355469 1.9888131022453308 68.03192138671875 1.9888131022453308 68.03192138671875 1.9888131022453308 C 66.90696716308594 1.9888131022453308 66.00700378417969 2.8888286352157593 66.00700378417969 4.013917863368988 C 66.00700378417969 4.013917863368988 66.00700378417969 8.176664233207703 66.00700378417969 8.176664233207703 C 66.00700378417969 8.176664233207703 17.860450744628906 8.176664233207703 17.860450744628906 8.176664233207703 C 17.860450744628906 8.176664233207703 17.860450744628906 4.013917863368988 17.860450744628906 4.013917863368988 C 17.860450744628906 2.8888286352157593 16.960601806640625 1.9888131022453308 15.835647583007812 1.9888131022453308 C 15.835647583007812 1.9888131022453308 4.0239715576171875 1.9888131022453308 4.0239715576171875 1.9888131022453308 C 2.8991317749023438 1.9888131022453308 1.9991683959960938 2.8888286352157593 1.9991683959960938 4.013917863368988 C 1.9991683959960938 4.013917863368988 1.9991683959960938 16.27708327770233 1.9991683959960938 16.27708327770233 C 1.9991683959960938 17.40217250585556 2.8991317749023438 18.30218803882599 4.0239715576171875 18.30218803882599 C 4.0239715576171875 18.30218803882599 15.948257446289062 18.30218803882599 15.948257446289062 18.30218803882599 C 17.073097229003906 18.30218803882599 17.973060607910156 17.40217250585556 17.973060607910156 16.27708327770233 C 17.973060607910156 16.27708327770233 17.973060607910156 12.114336907863617 17.973060607910156 12.114336907863617 C 17.973060607910156 12.114336907863617 40.13397216796875 12.114336907863617 40.13397216796875 12.114336907863617 C 39.90886688232422 17.064841210842133 27.872314453125 40.35354596376419 20.222854614257812 54.07913190126419 C 19.772872924804688 54.86661058664322 19.99786376953125 55.87916296720505 20.672836303710938 56.55438405275345 C 27.534828186035156 62.40434539318085 29.222259521484375 68.14260762929916 29.67212677001953 71.06744867563248 C 29.67212677001953 71.06744867563248 27.08484649658203 71.06744867563248 27.08484649658203 71.06744867563248 C 25.95989227294922 71.06744867563248 25.060043334960938 71.9674642086029 25.060043334960938 73.09255343675613 C 25.060043334960938 73.09255343675613 25.060043334960938 82.99300354719162 25.060043334960938 82.99300354719162 C 25.060043334960938 84.11809277534485 25.95989227294922 85.01810830831528 27.08484649658203 85.01810830831528 C 27.08484649658203 85.01810830831528 57.007713317871094 85.01810830831528 57.007713317871094 85.01810830831528 C 58.13255310058594 85.01810830831528 59.03251647949219 84.11809277534485 59.03251647949219 82.99300354719162 C 59.03251647949219 82.99300354719162 59.03251647949219 73.09255343675613 59.03251647949219 73.09255343675613 C 59.03251647949219 71.9674642086029 58.13255310058594 71.06744867563248 57.007713317871094 71.06744867563248 C 57.007713317871094 71.06744867563248 54.420433044433594 71.06744867563248 54.420433044433594 71.06744867563248 C 54.87030029296875 68.14260762929916 56.55773162841797 62.40434539318085 63.41972351074219 56.55438405275345 C 64.09469604492188 55.99197906255722 64.31968688964844 54.86661058664322 63.86970520019531 54.07913190126419 C 56.220245361328125 40.35354596376419 44.183692932128906 16.952304363250732 43.958587646484375 12.114336907863617 C 43.958587646484375 12.114336907863617 66.00700378417969 12.114336907863617 66.00700378417969 12.114336907863617 C 66.00700378417969 12.114336907863617 66.00700378417969 16.27708327770233 66.00700378417969 16.27708327770233 C 66.00700378417969 17.40217250585556 66.90696716308594 18.30218803882599 68.03192138671875 18.30218803882599 C 68.03192138671875 18.30218803882599 79.95597839355469 18.30218803882599 79.95597839355469 18.30218803882599 C 81.08104705810547 18.30218803882599 81.98078155517578 17.40217250585556 81.98078155517578 16.27708327770233 C 81.98078155517578 16.27708327770233 81.98078155517578 4.013917863368988 81.98078155517578 4.013917863368988 C 81.98078155517578 2.8888286352157593 81.08081817626953 1.9888131022453308 79.95597839355469 1.9888131022453308 Z M 13.923225402832031 14.251978516578674 C 13.923225402832031 14.251978516578674 5.936393737792969 14.251978516578674 5.936393737792969 14.251978516578674 C 5.936393737792969 14.251978516578674 5.936393737792969 5.926206529140472 5.936393737792969 5.926206529140472 C 5.936393737792969 5.926206529140472 13.923225402832031 5.926206529140472 13.923225402832031 5.926206529140472 C 13.923225402832031 5.926206529140472 13.923225402832031 14.251978516578674 13.923225402832031 14.251978516578674 Z M 42.046165466308594 47.21605968475342 C 43.50860595703125 47.21605968475342 44.63356018066406 48.34142816066742 44.63356018066406 49.803848683834076 C 44.63356018066406 51.266548454761505 43.50860595703125 52.391637682914734 42.046165466308594 52.391637682914734 C 40.583953857421875 52.391637682914734 39.458885192871094 51.266548454761505 39.458885192871094 49.803848683834076 C 39.458885192871094 48.45368576049805 40.696449279785156 47.21605968475342 42.046165466308594 47.21605968475342 Z M 55.09529113769531 80.85536193847656 C 55.09529113769531 80.85536193847656 29.109649658203125 80.85536193847656 29.109649658203125 80.85536193847656 C 29.109649658203125 80.85536193847656 29.109649658203125 74.89258450269699 29.109649658203125 74.89258450269699 C 29.109649658203125 74.89258450269699 31.809539794921875 74.89258450269699 31.809539794921875 74.89258450269699 C 31.809539794921875 74.89258450269699 52.3956298828125 74.89258450269699 52.3956298828125 74.89258450269699 C 52.3956298828125 74.89258450269699 55.09529113769531 74.89258450269699 55.09529113769531 74.89258450269699 C 55.09529113769531 74.89258450269699 55.09529113769531 80.85536193847656 55.09529113769531 80.85536193847656 Z M 50.48320770263672 70.95491182804108 C 50.48320770263672 70.95491182804108 33.609352111816406 70.95491182804108 33.609352111816406 70.95491182804108 C 33.15948486328125 67.69218099117279 31.47205352783203 61.16699856519699 24.38507080078125 54.52900004386902 C 27.08484649658203 49.578774988651276 35.184288024902344 34.72809982299805 40.0213623046875 23.70228123664856 C 40.0213623046875 23.70228123664856 40.0213623046875 43.615997552871704 40.0213623046875 43.615997552871704 C 37.43408203125 44.403755486011505 35.52165985107422 46.87844914197922 35.52165985107422 49.803848683834076 C 35.52165985107422 53.40419006347656 38.44654083251953 56.329031109809875 42.046165466308594 56.329031109809875 C 45.646018981933594 56.329031109809875 48.57078552246094 53.40419006347656 48.57078552246094 49.803848683834076 C 48.57078552246094 46.87844914197922 46.658477783203125 44.516292333602905 44.071197509765625 43.615997552871704 C 44.071197509765625 43.615997552871704 44.071197509765625 23.590023636817932 44.071197509765625 23.590023636817932 C 49.020652770996094 34.61556297540665 57.007713317871094 49.466238141059875 59.707489013671875 54.52900004386902 C 52.620506286621094 61.16699856519699 50.933074951171875 67.69218099117279 50.48320770263672 70.95491182804108 Z M 78.0435562133789 14.251978516578674 C 78.0435562133789 14.251978516578674 70.05672454833984 14.251978516578674 70.05672454833984 14.251978516578674 C 70.05672454833984 14.251978516578674 70.05672454833984 10.53937953710556 70.05672454833984 10.53937953710556 C 70.05672454833984 10.42684268951416 70.05672454833984 10.31430584192276 70.05672454833984 10.202048242092133 C 70.05672454833984 10.08923214673996 70.05672454833984 9.97669529914856 70.05672454833984 9.86415845155716 C 70.05672454833984 9.86415845155716 70.05672454833984 6.039022624492645 70.05672454833984 6.039022624492645 C 70.05672454833984 6.039022624492645 78.0435562133789 6.039022624492645 78.0435562133789 6.039022624492645 C 78.0435562133789 6.039022624492645 78.0435562133789 14.251978516578674 78.0435562133789 14.251978516578674 Z"/></g></svg>