<svg version="1.1" xmlns="http://www.w3.org/2000/svg" xmlns:xlink="http://www.w3.org/1999/xlink" width="82" height="94"><defs/><g><path fill="rgb(60,60,60)" stroke="none" paint-order="stroke fill markers" fill-rule="evenodd" d=" M 23.75597381591797 39.114311158657074 C 23.35394287109375 39.114311158657074 22.95305633544922 38.96184188127518 22.646697998046875 38.65746182203293 C 22.646697998046875 38.65746182203293 19.549240112304688 35.58015149831772 19.549240112304688 35.58015149831772 C 18.93663787841797 34.97139137983322 18.93663787841797 33.983971297740936 19.549240112304688 33.37521117925644 C 20.161727905273438 32.76645106077194 21.15496063232422 32.76645106077194 21.768478393554688 33.37521117925644 C 21.768478393554688 33.37521117925644 23.757003784179688 35.35033059120178 23.757003784179688 35.35033059120178 C 23.757003784179688 35.35033059120178 28.842987060546875 30.29790085554123 28.842987060546875 30.29790085554123 C 29.455474853515625 29.689140737056732 30.448707580566406 29.689140737056732 31.062225341796875 30.29790085554123 C 31.674942016601562 30.906381726264954 31.674942016601562 31.89408105611801 31.062225341796875 32.50284117460251 C 31.062225341796875 32.50284117460251 24.86719512939453 38.65746182203293 24.86719512939453 38.65746182203293 C 24.55889129638672 38.96184188127518 24.15697479248047 39.114311158657074 23.75597381591797 39.114311158657074 Z M 56.31098175048828 36.037000834941864 C 56.31098175048828 36.037000834941864 37.6370849609375 36.037000834941864 37.6370849609375 36.037000834941864 C 36.77111053466797 36.037000834941864 36.06787109375 35.33943992853165 36.06787109375 34.47796058654785 C 36.06787109375 33.61676049232483 36.77111053466797 32.91919958591461 37.6370849609375 32.91919958591461 C 37.6370849609375 32.91919958591461 56.31098175048828 32.91919958591461 56.31098175048828 32.91919958591461 C 57.17707061767578 32.91919958591461 57.88019561767578 33.61676049232483 57.88019561767578 34.47796058654785 C 57.88019561767578 35.33943992853165 57.17798614501953 36.037000834941864 56.31098175048828 36.037000834941864 Z M 23.75597381591797 65.79447996616364 C 23.35394287109375 65.79447996616364 22.95305633544922 65.64228993654251 22.646697998046875 65.33790987730026 C 22.646697998046875 65.33790987730026 19.549240112304688 62.26059955358505 19.549240112304688 62.26059955358505 C 18.93663787841797 61.651839435100555 18.93663787841797 60.66441935300827 19.549240112304688 60.055379986763 C 20.161727905273438 59.446899116039276 21.15496063232422 59.446899116039276 21.768478393554688 60.055379986763 C 21.768478393554688 60.055379986763 23.757003784179688 62.030778646469116 23.757003784179688 62.030778646469116 C 23.757003784179688 62.030778646469116 28.842987060546875 56.97890740633011 28.842987060546875 56.97890740633011 C 29.455474853515625 56.370426535606384 30.448707580566406 56.370426535606384 31.062225341796875 56.97890740633011 C 31.674942016601562 57.587667524814606 31.674942016601562 58.575366854667664 31.062225341796875 59.18412697315216 C 31.062225341796875 59.18412697315216 24.86719512939453 65.33874762058258 24.86719512939453 65.33874762058258 C 24.55889129638672 65.64312767982483 24.15697479248047 65.79447996616364 23.75597381591797 65.79447996616364 Z M 56.31098175048828 62.7174488902092 C 56.31098175048828 62.7174488902092 37.6370849609375 62.7174488902092 37.6370849609375 62.7174488902092 C 36.77111053466797 62.7174488902092 36.06787109375 62.01988798379898 36.06787109375 61.15868788957596 C 36.06787109375 60.29692929983139 36.77111053466797 59.599647641181946 37.6370849609375 59.599647641181946 C 37.6370849609375 59.599647641181946 56.31098175048828 59.599647641181946 56.31098175048828 59.599647641181946 C 57.17707061767578 59.599647641181946 57.88019561767578 60.29692929983139 57.88019561767578 61.15868788957596 C 57.88019561767578 62.01988798379898 57.17798614501953 62.7174488902092 56.31098175048828 62.7174488902092 Z M 23.75597381591797 79.13665872812271 C 23.35394287109375 79.13665872812271 22.95305633544922 78.98391020298004 22.646697998046875 78.6795301437378 C 22.646697998046875 78.6795301437378 19.549240112304688 75.60221982002258 19.549240112304688 75.60221982002258 C 18.93663787841797 74.99345970153809 18.93663787841797 74.00576037168503 19.549240112304688 73.3972795009613 C 20.161727905273438 72.78879863023758 21.15496063232422 72.78879863023758 21.768478393554688 73.3972795009613 C 21.768478393554688 73.3972795009613 23.757003784179688 75.37267816066742 23.757003784179688 75.37267816066742 C 23.757003784179688 75.37267816066742 28.842987060546875 70.32080692052841 28.842987060546875 70.32080692052841 C 29.455474853515625 69.71232604980469 30.448707580566406 69.71232604980469 31.062225341796875 70.32080692052841 C 31.67597198486328 70.92956703901291 31.674942016601562 71.91726636886597 31.062225341796875 72.52574723958969 C 31.062225341796875 72.52574723958969 24.86719512939453 78.68036788702011 24.86719512939453 78.68036788702011 C 24.55889129638672 78.98391020298004 24.15697479248047 79.13665872812271 23.75597381591797 79.13665872812271 Z M 56.31098175048828 76.05795216560364 C 56.31098175048828 76.05795216560364 37.6370849609375 76.05795216560364 37.6370849609375 76.05795216560364 C 36.77111053466797 76.05795216560364 36.06787109375 75.36039125919342 36.06787109375 74.4991911649704 C 36.06787109375 73.63799107074738 36.77111053466797 72.94015091657639 37.6370849609375 72.94015091657639 C 37.6370849609375 72.94015091657639 56.31098175048828 72.94015091657639 56.31098175048828 72.94015091657639 C 57.17707061767578 72.94015091657639 57.88019561767578 73.63799107074738 57.88019561767578 74.4991911649704 C 57.88019561767578 75.36039125919342 57.17798614501953 76.05795216560364 56.31098175048828 76.05795216560364 Z M 23.75597381591797 52.453976690769196 C 23.35394287109375 52.453976690769196 22.95305633544922 52.301228165626526 22.646697998046875 51.99712735414505 C 22.646697998046875 51.99712735414505 19.549240112304688 48.91953778266907 19.549240112304688 48.91953778266907 C 18.93663787841797 48.31105691194534 18.93663787841797 47.324474573135376 19.549240112304688 46.71487671136856 C 20.161727905273438 46.106116592884064 21.15496063232422 46.106116592884064 21.768478393554688 46.71487671136856 C 21.768478393554688 46.71487671136856 23.757003784179688 48.689158380031586 23.757003784179688 48.689158380031586 C 23.757003784179688 48.689158380031586 28.842987060546875 43.63756638765335 28.842987060546875 43.63756638765335 C 29.455474853515625 43.02908551692963 30.448707580566406 43.02908551692963 31.062225341796875 43.63756638765335 C 31.67597198486328 44.24632650613785 31.674942016601562 45.23374658823013 31.062225341796875 45.84250670671463 C 31.062225341796875 45.84250670671463 24.86719512939453 51.99712735414505 24.86719512939453 51.99712735414505 C 24.55889129638672 52.30234515666962 24.15697479248047 52.453976690769196 23.75597381591797 52.453976690769196 Z M 56.31098175048828 49.37806260585785 C 56.31098175048828 49.37806260585785 37.6370849609375 49.37806260585785 37.6370849609375 49.37806260585785 C 36.77111053466797 49.37806260585785 36.06787109375 48.68022245168686 36.06787109375 47.818743109703064 C 36.06787109375 46.95754301548004 36.77111053466797 46.25970286130905 37.6370849609375 46.25970286130905 C 37.6370849609375 46.25970286130905 56.31098175048828 46.25970286130905 56.31098175048828 46.25970286130905 C 57.17707061767578 46.25970286130905 57.88019561767578 46.95754301548004 57.88019561767578 47.818743109703064 C 57.88019561767578 48.68022245168686 57.17798614501953 49.37806260585785 56.31098175048828 49.37806260585785 Z M 78.88822937011719 12.404821336269379 C 78.88822937011719 12.404821336269379 60.42192840576172 12.404821336269379 60.42192840576172 12.404821336269379 C 60.20208740234375 9.224189341068268 57.53401184082031 6.719057679176331 54.280799865722656 6.719057679176331 C 54.280799865722656 6.719057679176331 48.296226501464844 6.719057679176331 48.296226501464844 6.719057679176331 C 48.25445556640625 3.5699806809425354 45.66980743408203 1.0131881833076477 42.479652404785156 1.0131881833076477 C 39.2996826171875 1.0131881833076477 36.704734802246094 3.5699806809425354 36.67314910888672 6.719057679176331 C 36.67314910888672 6.719057679176331 30.678504943847656 6.719057679176331 30.678504943847656 6.719057679176331 C 27.43547821044922 6.719057679176331 24.767288208007812 9.224189341068268 24.547561645507812 12.404821336269379 C 24.547561645507812 12.404821336269379 4.0811767578125 12.404821336269379 4.0811767578125 12.404821336269379 C 2.9200592041015625 12.404821336269379 1.9888534545898438 13.340022087097168 1.9888534545898438 14.483262419700623 C 1.9888534545898438 14.483262419700623 1.9888534545898438 89.92120724916458 1.9888534545898438 89.92120724916458 C 1.9888534545898438 91.07477974891663 2.9200592041015625 92.00020682811737 4.0811767578125 92.00020682811737 C 4.0811767578125 92.00020682811737 78.88822937011719 92.00020682811737 78.88822937011719 92.00020682811737 C 80.04934692382812 92.00020682811737 80.98055267333984 91.07477974891663 80.98055267333984 89.92120724916458 C 80.98055267333984 89.92120724916458 80.98055267333984 14.483262419700623 80.98055267333984 14.483262419700623 C 80.98055267333984 13.340022087097168 80.04934692382812 12.404821336269379 78.88822937011719 12.404821336269379 Z M 28.71149444580078 12.84156483411789 C 28.71149444580078 11.76087599992752 29.590744018554688 10.87705683708191 30.678504943847656 10.87705683708191 C 30.678504943847656 10.87705683708191 37.21754455566406 10.87705683708191 37.21754455566406 10.87705683708191 C 39.22632598876953 10.87705683708191 40.85859680175781 9.25546509027481 40.85859680175781 7.2711305022239685 C 40.85859680175781 7.2711305022239685 40.85859680175781 6.792779088020325 40.85859680175781 6.792779088020325 C 40.85859680175781 5.898907005786896 41.59124755859375 5.171187341213226 42.480567932128906 5.171187341213226 C 43.38007354736328 5.171187341213226 44.11283874511719 5.898907005786896 44.11283874511719 6.792779088020325 C 44.11283874511719 6.792779088020325 44.11283874511719 7.2711305022239685 44.11283874511719 7.2711305022239685 C 44.11283874511719 9.256582081317902 45.7449951171875 10.87705683708191 47.74267578125 10.87705683708191 C 47.74267578125 10.87705683708191 54.281715393066406 10.87705683708191 54.281715393066406 10.87705683708191 C 55.38069152832031 10.87705683708191 56.25902557373047 11.76087599992752 56.25902557373047 12.84156483411789 C 56.25902557373047 12.84156483411789 56.25902557373047 17.10288566350937 56.25902557373047 17.10288566350937 C 56.25902557373047 17.10288566350937 28.7125244140625 17.10288566350937 28.7125244140625 17.10288566350937 C 28.7125244140625 17.10288566350937 28.7125244140625 12.84156483411789 28.7125244140625 12.84156483411789 C 28.7125244140625 12.84156483411789 28.71149444580078 12.84156483411789 28.71149444580078 12.84156483411789 Z M 76.7960205078125 87.84276616573334 C 76.7960205078125 87.84276616573334 6.1733856201171875 87.84276616573334 6.1733856201171875 87.84276616573334 C 6.1733856201171875 87.84276616573334 6.1733856201171875 16.56198275089264 6.1733856201171875 16.56198275089264 C 6.1733856201171875 16.56198275089264 24.526046752929688 16.56198275089264 24.526046752929688 16.56198275089264 C 24.526046752929688 16.56198275089264 24.526046752929688 19.18104749917984 24.526046752929688 19.18104749917984 C 24.526046752929688 20.334619998931885 25.457252502441406 21.259767830371857 26.618370056152344 21.259767830371857 C 26.618370056152344 21.259767830371857 58.34906005859375 21.259767830371857 58.34906005859375 21.259767830371857 C 59.51017761230469 21.259767830371857 60.44126892089844 20.334619998931885 60.44126892089844 19.18104749917984 C 60.44126892089844 19.18104749917984 60.44126892089844 16.56198275089264 60.44126892089844 16.56198275089264 C 60.44126892089844 16.56198275089264 76.79407501220703 16.56198275089264 76.79407501220703 16.56198275089264 C 76.79407501220703 16.56198275089264 76.79407501220703 87.84276616573334 76.79407501220703 87.84276616573334 C 76.79407501220703 87.84276616573334 76.7960205078125 87.84276616573334 76.7960205078125 87.84276616573334 Z M 42.48468780517578 11.139828979969025 C 43.59465026855469 11.139828979969025 44.49449920654297 12.033980309963226 44.49449920654297 13.136729717254639 C 44.49449920654297 14.239199876785278 43.59465026855469 15.133071959018707 42.48468780517578 15.133071959018707 C 41.374725341796875 15.133071959018707 40.474876403808594 14.239199876785278 40.474876403808594 13.136729717254639 C 40.474876403808594 12.033980309963226 41.374725341796875 11.139828979969025 42.48468780517578 11.139828979969025 Z"/></g></svg>