<svg version="1.1" xmlns="http://www.w3.org/2000/svg" xmlns:xlink="http://www.w3.org/1999/xlink" width="83" height="79"><defs/><g><path fill="rgb(60,60,60)" stroke="none" paint-order="stroke fill markers" fill-rule="evenodd" d=" M 78.92141723632812 77.99740356206894 C 78.92141723632812 77.99740356206894 4.0775146484375 77.99740356206894 4.0775146484375 77.99740356206894 C 2.9293289184570312 77.99740356206894 1.9984664916992188 77.05689710378647 1.9984664916992188 75.8994151353836 C 1.9984664916992188 75.8994151353836 1.9984664916992188 14.981795370578766 1.9984664916992188 14.981795370578766 C 1.9984664916992188 13.822637915611267 2.92852783203125 12.882969200611115 4.0775146484375 12.882969200611115 C 4.0775146484375 12.882969200611115 78.92141723632812 12.882969200611115 78.92141723632812 12.882969200611115 C 80.06880187988281 12.882969200611115 81.0004653930664 13.822637915611267 81.0004653930664 14.981795370578766 C 81.0004653930664 14.981795370578766 81.0004653930664 75.8994151353836 81.0004653930664 75.8994151353836 C 81.0004653930664 77.05773484706879 80.06880187988281 77.99740356206894 78.92141723632812 77.99740356206894 Z M 6.15576171875 73.80030971765518 C 6.15576171875 73.80030971765518 76.84248352050781 73.80030971765518 76.84248352050781 73.80030971765518 C 76.84248352050781 73.80030971765518 76.84248352050781 17.080342292785645 76.84248352050781 17.080342292785645 C 76.84248352050781 17.080342292785645 6.15576171875 17.080342292785645 6.15576171875 17.080342292785645 C 6.15576171875 17.080342292785645 6.15576171875 73.80030971765518 6.15576171875 73.80030971765518 Z M 78.92141723632812 17.080342292785645 C 78.92141723632812 17.080342292785645 4.0775146484375 17.080342292785645 4.0775146484375 17.080342292785645 C 2.9293289184570312 17.080342292785645 1.9984664916992188 16.14151132106781 1.9984664916992188 14.981795370578766 C 1.9984664916992188 14.981795370578766 1.9984664916992188 4.0933666825294495 1.9984664916992188 4.0933666825294495 C 1.9984664916992188 2.9342092275619507 2.92852783203125 1.9942612648010254 4.0775146484375 1.9942612648010254 C 4.0775146484375 1.9942612648010254 78.92141723632812 1.9942612648010254 78.92141723632812 1.9942612648010254 C 80.06880187988281 1.9942612648010254 81.0004653930664 2.9333714842796326 81.0004653930664 4.0933666825294495 C 81.0004653930664 4.0933666825294495 81.0004653930664 14.981795370578766 81.0004653930664 14.981795370578766 C 81.0004653930664 16.140952825546265 80.06880187988281 17.080342292785645 78.92141723632812 17.080342292785645 Z M 6.15576171875 12.883806943893433 C 6.15576171875 12.883806943893433 76.84248352050781 12.883806943893433 76.84248352050781 12.883806943893433 C 76.84248352050781 12.883806943893433 76.84248352050781 6.191913604736328 76.84248352050781 6.191913604736328 C 76.84248352050781 6.191913604736328 6.15576171875 6.191913604736328 6.15576171875 6.191913604736328 C 6.15576171875 6.191913604736328 6.15576171875 12.883806943893433 6.15576171875 12.883806943893433 Z M 11.180633544921875 8.069296300411224 C 11.983779907226562 8.069296300411224 12.634834289550781 8.726645529270172 12.634834289550781 9.537301778793335 C 12.634834289550781 10.34823727607727 11.983779907226562 11.005307257175446 11.180633544921875 11.005307257175446 C 10.377487182617188 11.005307257175446 9.726318359375 10.34823727607727 9.726318359375 9.537301778793335 C 9.726318359375 8.726645529270172 10.377487182617188 8.069296300411224 11.180633544921875 8.069296300411224 Z M 15.531333923339844 8.070413291454315 C 16.334022521972656 8.070413291454315 16.98473358154297 8.727204024791718 16.98473358154297 9.537301778793335 C 16.98473358154297 10.347678780555725 16.334022521972656 11.004469513893127 15.531333923339844 11.004469513893127 C 14.728530883789062 11.004469513893127 14.07781982421875 10.347678780555725 14.07781982421875 9.537301778793335 C 14.07781982421875 8.727204024791718 14.728530883789062 8.070413291454315 15.531333923339844 8.070413291454315 Z M 19.88123321533203 8.069296300411224 C 20.68437957763672 8.069296300411224 21.335433959960938 8.726645529270172 21.335433959960938 9.537301778793335 C 21.335433959960938 10.34823727607727 20.68437957763672 11.005307257175446 19.88123321533203 11.005307257175446 C 19.078086853027344 11.005307257175446 18.427032470703125 10.34823727607727 18.427032470703125 9.537301778793335 C 18.427032470703125 8.726645529270172 19.078086853027344 8.069296300411224 19.88123321533203 8.069296300411224 Z M 31.044830322265625 51.17677313089371 C 30.57939910888672 51.17677313089371 30.114768981933594 50.996937572956085 29.758628845214844 50.63810420036316 C 29.758628845214844 50.63810420036316 24.098838806152344 44.925812005996704 24.098838806152344 44.925812005996704 C 23.388389587402344 44.2087037563324 23.388389587402344 43.04563683271408 24.098838806152344 42.328528583049774 C 24.098838806152344 42.328528583049774 29.748443603515625 36.62489306926727 29.748443603515625 36.62489306926727 C 30.458892822265625 35.907505571842194 31.61016845703125 35.907505571842194 32.32141876220703 36.62489306926727 C 33.03186798095703 37.34200131893158 33.03186798095703 38.503951251506805 32.32141876220703 39.221338748931885 C 32.32141876220703 39.221338748931885 27.95721435546875 43.628147661685944 27.95721435546875 43.628147661685944 C 27.95721435546875 43.628147661685944 32.33091735839844 48.04305475950241 32.33091735839844 48.04305475950241 C 33.04136657714844 48.76044225692749 33.04136657714844 49.922392189502716 32.33091735839844 50.63894194364548 C 31.975807189941406 50.996937572956085 31.51026153564453 51.17677313089371 31.044830322265625 51.17677313089371 Z M 51.961997985839844 51.17677313089371 C 51.49656677246094 51.17677313089371 51.03033447265625 50.996937572956085 50.67591094970703 50.63810420036316 C 49.96546173095703 49.92099595069885 49.96546173095703 48.758766770362854 50.67591094970703 48.04221701622009 C 50.67591094970703 48.04221701622009 55.040916442871094 43.63624584674835 55.040916442871094 43.63624584674835 C 55.040916442871094 43.63624584674835 50.665611267089844 39.22050100564957 50.665611267089844 39.22050100564957 C 49.955963134765625 38.50339275598526 49.955963134765625 37.34200131893158 50.665611267089844 36.624055325984955 C 51.376060485839844 35.90694707632065 52.52893829345703 35.90694707632065 53.23778533935547 36.624055325984955 C 53.23778533935547 36.624055325984955 58.89849090576172 42.33718526363373 58.89849090576172 42.33718526363373 C 59.240211486816406 42.68149775266647 59.43212890625 43.14784151315689 59.43212890625 43.635408103466034 C 59.43212890625 44.12213695049286 59.240211486816406 44.588480710983276 58.89849090576172 44.93279320001602 C 58.89849090576172 44.93279320001602 53.247283935546875 50.63726645708084 53.247283935546875 50.63726645708084 C 52.892173767089844 50.996937572956085 52.42742919921875 51.17677313089371 51.961997985839844 51.17677313089371 Z M 38.8931884765625 55.418267369270325 C 38.74407196044922 55.418267369270325 38.59186553955078 55.4001162648201 38.441261291503906 55.36130082607269 C 37.46748352050781 55.110815584659576 36.88074493408203 54.11082935333252 37.12885284423828 53.1278772354126 C 37.12885284423828 53.1278772354126 41.75169372558594 34.84720182418823 41.75169372558594 34.84720182418823 C 42.00048828125 33.86424970626831 42.99578094482422 33.27252370119095 43.963836669921875 33.5216127038002 C 44.93830108642578 33.77237719297409 45.52595520019531 34.77292191982269 45.277732849121094 35.75559478998184 C 45.277732849121094 35.75559478998184 40.654205322265625 54.03654944896698 40.654205322265625 54.03654944896698 C 40.444091796875 54.86563605070114 39.704345703125 55.418267369270325 38.8931884765625 55.418267369270325 Z"/></g></svg>