<svg version="1.1" xmlns="http://www.w3.org/2000/svg" xmlns:xlink="http://www.w3.org/1999/xlink" width="19" height="14"><defs/><g><path fill="rgb(255,255,255)" stroke="none" paint-order="stroke fill markers" fill-rule="evenodd" d=" M 16.493148803710938 2.171842575073242 C 16.493148803710938 2.171842575073242 15.999908447265625 1.9998767375946045 15.999908447265625 1.9998767375946045 C 15.999908447265625 1.9998767375946045 15.999908447265625 1.9998767375946045 15.999908447265625 1.9998767375946045 C 15.999908447265625 1.9998767375946045 15.999908447265625 1.9998767375946045 15.999908447265625 1.9998767375946045 C 15.999908447265625 1.9998767375946045 2.9999923706054688 1.9998767375946045 2.9999923706054688 1.9998767375946045 C 2.6346969604492188 2.0006601810455322 2.0009231567382812 2.6344659328460693 1.9998931884765625 2.9999423027038574 C 1.9998931884765625 2.9999423027038574 1.9998931884765625 11.999748945236206 1.9998931884765625 11.999748945236206 C 2.0009231567382812 12.36483359336853 2.6357269287109375 12.998639345169067 2.9999923706054688 12.999814510345459 C 2.9999923706054688 12.999814510345459 16.999893188476562 12.999814510345459 16.999893188476562 12.999814510345459 C 17.36713409423828 12.998639345169067 16.998977661132812 12.36483359336853 16.999893188476562 11.999748945236206 C 16.999893188476562 11.999748945236206 16.999893188476562 2.9999423027038574 16.999893188476562 2.9999423027038574 C 16.998977661132812 2.6336824893951416 16.859359741210938 2.17262601852417 16.493148803710938 2.171842575073242 Z M 15.999908447265625 11.999748945236206 C 15.999908447265625 12.038921117782593 17.039947509765625 11.999748945236206 16.999893188476562 11.999748945236206 C 16.999893188476562 11.999748945236206 2.9999923706054688 11.999748945236206 2.9999923706054688 11.999748945236206 C 2.960968017578125 11.999748945236206 2.9999923706054688 12.038921117782593 2.9999923706054688 11.999748945236206 C 2.9999923706054688 11.999748945236206 2.9999923706054688 11.999748945236206 2.9999923706054688 11.999748945236206 C 2.9999923706054688 11.999748945236206 7.999916076660156 7.999878406524658 7.999916076660156 7.999878406524658 C 7.999916076660156 7.999878406524658 8.783149719238281 8.794681787490845 8.783149719238281 8.794681787490845 C 8.987197875976562 8.961555242538452 9.242172241210938 9.037940979003906 9.491195678710938 9.037940979003906 C 9.740219116210938 9.037940979003906 9.995994567871094 8.961555242538452 10.199127197265625 8.794681787490845 C 10.199127197265625 8.794681787490845 10.999984741210938 7.999878406524658 10.999984741210938 7.999878406524658 C 10.999984741210938 7.999878406524658 15.999908447265625 11.999748945236206 15.999908447265625 11.999748945236206 C 15.999908447265625 11.999748945236206 15.999908447265625 11.999748945236206 15.999908447265625 11.999748945236206 Z M 9.827079772949219 8.340676307678223 C 9.827079772949219 8.340676307678223 9.828109741210938 8.340676307678223 9.822158813476562 8.34341835975647 C 9.816322326660156 8.347335577011108 10.01373291015625 7.9900853633880615 10 7.999878406524658 C 9.918060302734375 8.053544282913208 9.601516723632812 8.449966669082642 9.495086669921875 8.451141834259033 C 9.495086669921875 8.451141834259033 9.489250183105469 8.451141834259033 9.489250183105469 8.451141834259033 C 9.489250183105469 8.451141834259033 9.002876281738281 7.999878406524658 8.999900817871094 7.999878406524658 C 8.874015808105469 7.998703241348267 9.080924987792969 8.067254543304443 8.999900817871094 7.999878406524658 C 8.999900817871094 7.999878406524658 3.9999771118164062 2.9999423027038574 3.9999771118164062 2.9999423027038574 C 4.0126800537109375 2.9881906509399414 3.5146331787109375 2.812307596206665 2.9999923706054688 2.9999423027038574 C 2.9999923706054688 2.9999423027038574 15.999908447265625 2.9999423027038574 15.999908447265625 2.9999423027038574 C 16.02336883544922 2.9999423027038574 15.985260009765625 2.9815313816070557 15.999908447265625 2.9999423027038574 C 15.999908447265625 2.9999423027038574 10 7.999878406524658 10 7.999878406524658 C 10 7.999878406524658 9.827079772949219 8.340676307678223 9.827079772949219 8.340676307678223 Z M 2.9999923706054688 10.999683380126953 C 2.9999923706054688 10.999683380126953 2.9999923706054688 2.9999423027038574 2.9999923706054688 2.9999423027038574 C 2.9999923706054688 2.9999423027038574 6.999931335449219 6.999812841415405 6.999931335449219 6.999812841415405 C 6.999931335449219 6.999812841415405 2.9999923706054688 10.999683380126953 2.9999923706054688 10.999683380126953 Z M 15.999908447265625 3.9996161460876465 C 15.999908447265625 3.9996161460876465 15.999908447265625 10.999683380126953 15.999908447265625 10.999683380126953 C 15.999908447265625 10.999683380126953 11.999969482421875 6.999812841415405 11.999969482421875 6.999812841415405 C 11.999969482421875 6.999812841415405 15.999908447265625 3.9996161460876465 15.999908447265625 3.9996161460876465 Z"/></g></svg>